# xmcd CD database file
#
# Track frame offsets:
#	150
#	17960
#	29062
#	53700
#	72372
#	95125
#	116995
#	141765
#	157400
#	182500
#	198247
#	217722
#
# Disc length: 3181 seconds
#
# Revision: 1
# Processed by: cddbd v1.5.2PL0 Copyright (c) Steve Scherf et al.
# Submitted via: CDex 1.51
#
DISCID=b50c6b0c
DTITLE=Joe Cocker - Night Calls
DYEAR=1991
DGENRE=Blues
TTITLE0=Love Is Alive
TTITLE1=Little Bit Of Love
TTITLE2=Please No More
TTITLE3=There's A Storm Coming
TTITLE4=You've Got To Hide Your Love Away
TTITLE5=I Can Hear The River
TTITLE6=Don't Let The Sun Go Down On Me
TTITLE7=Night Calls
TTITLE8=Five Women
TTITLE9=Can't Find My Way Home
TTITLE10=Not Too Young To Die Of A Broken Heart
TTITLE11=Out Of The Rain
EXTD=Capitol Records. BIEM/STEMRA. LC 01148. Made in Holland. YEAR: 1991
EXTT0=
EXTT1=
EXTT2=
EXTT3=
EXTT4=
EXTT5=
EXTT6=
EXTT7=
EXTT8=
EXTT9=
EXTT10=
EXTT11=
PLAYORDER=
